<?xml version="1.0" encoding="UTF-8" standalone="no"?>
<svg width="244px" height="161px" viewBox="0 0 244 161" version="1.1" xmlns="http://www.w3.org/2000/svg" xmlns:xlink="http://www.w3.org/1999/xlink">
    <!-- Generator: Sketch 39.1 (31720) - http://www.bohemiancoding.com/sketch -->
    <title>Fish</title>
    <desc>Created with Sketch.</desc>
    <defs></defs>
    <g id="Page-1" stroke="none" stroke-width="1" fill="none" fill-rule="evenodd">
        <g id="Fish">
            <path d="M91,5.4 C91.8,13.2 90.2,20 86.3,26.099 C85.6,28.299 83.8,30.299 84.2,32.7 C98,33.8 112.9,34.7 125.3,40.2 C131.901,42.599 139,43.7 145.5,46.2 C146.2,46.8 147.2,47.099 147.9,47.4 C155.8,50.1 163.3,53.5 171.6,55.2 C174.201,55 176.901,56.3 179.401,55.5 C194.701,54.7 207.701,46.3 218.8,35.3 C220,33.901 224.14,28.722 225.34,27.722 C225.885,27.312 227.2,27.3 226.8,28 C226.379,29.93 225.929,32.661 225.878,34.271 C226.078,43.372 223.2,51 222.3,59.7 C220.2,65.1 217.1,71.1 211.6,74 L212,74.3 C222.1,73.901 231.2,76.8 238.2,83.901 C246.562,90.313 242.3,100.501 242.3,100.501 C241.982,103.375 240.196,105.803 239.082,108.344 C238.8,108.987 238.239,109.707 237.836,109.137 C235.998,104.438 229.6,101.701 229.6,101.701 L218.901,100.101 C208.8,99.3 198.501,97.201 189.3,101.401 C181.901,103.401 164.8,112.601 162.901,113.3 C141.501,125.401 117.101,130.401 91.501,132.2 C91.801,133.5 92.601,135.1 93.201,136.4 C93.201,138.1 95.301,138.799 95.901,140.299 C98.601,142.9 99.001,146.799 101.301,149.699 C102.401,152.199 102.101,155.699 100.201,157.399 C100.201,157.399 99.307,158.198 97.601,158.099 C95.895,158 93.098,154.406 90.801,149.798 C90.701,149.498 90.401,149.298 90.201,149.099 C90.301,150.998 90.901,154.199 90.201,155.998 C90.901,157.198 90.222,158.439 89.183,160.118 C88.183,160.919 87.545,160.837 86.201,160.398 C81.601,157.898 81.801,152.398 80.401,148.098 C79.601,143.098 77.68,137.097 75.68,132.497 L73.8,132.497 C52.9,131.497 31.9,129.897 15,118.598 C6,111.9 2.2,102 0.2,91.8 C-0.8,83.3 2.8,75.8 5.4,68.3 C16.4,46.9 39.2,37 60.8,33.4 C64.1,28.799 64.2,22.9 65.2,17.299 C67.1,12.1 69.2,6.199 74.3,2.9 C75,2.5 76.2,2.6 76.8,3.2 C78.7,6.3 76.4,9.6 76.5,12.9 C77.8,11.7 78.7,9.7 80.1,8.2 C82.4,6.3 83.9,2.9 86.6,2 C87.4,1.4 88.4,0.2 89.7,1 C90.6,2.3 90.7,4.101 91,5.4 L91,5.4 Z" id="Shape" fill="#FBB040"></path>
            <path d="M86.8,10.2 L85.2,21.2 C84.2,25 81.8,28.2 81.8,32.4 C76.5,32.299 70.6,32.2 65.9,32.599 C65.7,29.7 68.3,27.599 68.2,24.599 C69.2,20.4 68.6,16.2 69.6,11.799 C70.2,9.6 72.1,7.699 73.4,5.699 L73.6,5.799 C73.7,10.499 73.4,15.099 73,19.599 C74,20.7 74.7,22.799 76.7,22.599 C79.5,21.299 79.7,17.7 80.7,14.999 C80.6,12.6 82.5,10.6 83.2,8.299 L85.8,5.1 C87.1,6.3 86.5,8.5 86.8,10.2 L86.8,10.2 Z" id="Shape" fill="#DB3813"></path>
            <path d="M97.4,40.5 C92.9,43 87.5,43 82.6,44.2 C81.5,43.8 81.6,42.4 80.7,41.7 L78.5,39.5 C83,39.3 88.2,39.5 92.3,39.8 L97.4,40.5 L97.4,40.5 Z" id="Shape" fill="#DB3813"></path>
            <path d="M77.2,43 C78.4,48.6 73.3,52.9 69,56.1 C66.2,50.901 62.8,45.5 58,41.6 C63.4,40.6 69.8,38.3 75.4,40.701 L77.2,43 L77.2,43 Z" id="Shape" fill="#DB3813"></path>
            <path d="M113.9,42.6 C112.6,46.5 108.9,50 105.2,51.6 C102.8,47.701 98.5,46.6 94.6,45.201 C97.3,44.401 100.972,42.432 101.547,42.11 C102.122,41.788 102.5,41 102.5,41 L113.9,42.6 L113.9,42.6 Z" id="Shape" fill="#DB3813"></path>
            <path d="M61.2,53.2 C64.5,57.5 65.6,62.7 67.6,67.599 C71.3,78.499 70.9,91.7 70.7,103.6 C70.821,105.905 70.397,108.285 70.1,109.7 C69,114.7 68.4,120.1 67.8,125.2 L58.4,125.4 C55.7,124.799 52.7,124.799 49.8,124.5 C42.4,123.601 35.1,122.9 28.5,119.7 C34.6,118.3 39.3,113.5 43.5,109 C44.3,107.7 45.3,106.8 46.4,105.5 C47.6,101.8 50,98.601 50.9,94.7 C50.9,94.7 50.609,90.937 50.484,89.609 C50.359,88.281 49.1,90 49.1,90 C46.6,98 41.4,105.101 35.4,111.3 C32.2,114.2 28.7,116.5 25,118.101 C15.1,113.8 7.6,103.5 7.5,92.6 C7,82.2 9.6,71.7 16.5,63.9 C25.7,53 37.5,46.7 50.1,43.1 C50.7,43.1 58,50 61.2,53.2 L61.2,53.2 Z" id="Shape" fill="#FECC7D"></path>
            <path d="M119.8,44.6 C122.2,44.901 124.2,46.401 125.8,48.3 C127.901,51.901 126.5,56.2 125.2,59.7 C124.099,60.7 122.7,61.599 121.4,61.7 C120,57.2 115.7,53.8 111.5,52 L111.5,51.6 C113,50 115.1,49.201 116.1,47.1 C117.4,46.5 117.9,45 118,43.701 C118.7,43.6 119.2,44.4 119.8,44.6 L119.8,44.6 Z" id="Shape" fill="#DB3813"></path>
            <path d="M93.8,48.3 C95.3,48.901 97.4,49.2 98.2,51 C99.7,56.6 95.7,60.9 91.5,64 L87.8,59.4 C85,57.9 82.2,56.4 78.6,56.7 C81.1,55.2 81.7,52.3 82.5,49.599 C82.6,48.599 82,46.799 83.7,47.099 C87,47.4 90.3,47.7 93.8,48.3 L93.8,48.3 Z" id="Shape" fill="#DB3813"></path>
            <path d="M55.4,51.2 C56.183,51.951 57.435,54.783 57.5,56.099 C57.565,57.415 58.8,61.599 57.3,63.9 C55.8,69.3 45.9,74.7 45.9,74.7 C41.3,75.8 36.3,74.599 33.6,71.099 C31.2,67.799 30.2,63.099 31.8,59.099 C34.3,55.4 37.1,50.999 41.3,49.099 C46.1,45.9 54.617,50.449 55.4,51.2 L55.4,51.2 Z" id="Shape" fill="#281D78"></path>
            <path d="M152.4,57.9 C151.099,59.799 148.599,60.9 146.299,61.599 C145.799,58.4 143.599,55.4 140.9,53.7 C138.299,52.4 135.2,52.3 132.299,51.8 L131.599,49 C139.2,50.5 145,55.8 152.4,57.9 L152.4,57.9 Z" id="Shape" fill="#DB3813"></path>
            <path d="M53.8,66.3 C50.1,70.2 45.3,73.2 39.6,71.6 C37.8,70.901 35.9,69.6 34.8,67.701 L33.5,62.801 C34.1,56.402 40.9,54.301 45.8,52.501 C49.1,53.1 52.5,53.7 54.8,56.8 C55.7,59.7 56.3,63.901 53.8,66.3 Z" id="Shape" fill="#4DA1CD"></path>
            <path d="M139.5,57.3 C142,59.342 141.047,64.51 140.062,66.625 C139.163,68.125 137.4,69.9 135.9,70.8 C135.099,70.2 135.4,68.6 134.7,67.7 C132.7,64.599 129.3,63.3 125.8,63 C128,61.7 130.034,60.638 131.334,57.938 C131.534,56.739 131.6,55.201 132.5,54 C135.1,54.5 137.5,55.3 139.5,57.3 L139.5,57.3 Z" id="Shape" fill="#DB3813"></path>
            <path d="M193.8,77.2 C193.6,77.4 197.313,78 201.401,79.099 C204.901,81.4 209.401,80.599 213.3,81.599 C213.3,81.599 216.6,82.299 218,82.7 C220.604,83.425 224.5,84.7 225.3,85.2 C228,86.9 230.5,89 232.7,91.4 C217.4,86.599 197.3,86.9 183.3,94.599 C183.3,94.599 176.1,95.799 175,96.499 C174.7,96.399 174.6,93.899 174.3,93.199 C172.3,89.799 168.901,88.799 165.401,88.399 C165.3,87.199 174.751,80.566 168.401,72.298 C167.8,71.698 167.501,70.498 166.701,69.998 C168.1,68.098 170.701,67.098 171.501,64.698 C177.501,65.398 184.601,66.498 190.501,64.698 C198.701,63.798 205.701,59.398 212.101,54.298 C208.6,61.7 192.8,76.4 193.8,77.2 L193.8,77.2 Z" id="Shape" fill="#DB3813"></path>
            <path d="M117.9,61.2 C119.688,67.5 115.6,71.5 112.8,74.2 C110,72 107,68.9 103.4,68.099 L100.5,67.2 C103.8,64.099 106.2,60.3 106.4,55.599 C108.3,53.799 110.8,55.599 112.8,56.2 C115.1,57.1 117,58.9 117.9,61.2 L117.9,61.2 Z" id="Shape" fill="#DB3813"></path>
            <path d="M46.7,57.5 C47.3,58.9 48.6,60.5 47.3,62 C46,63.6 44.4,65.1 42.4,65.3 C40.7,65.1 38.5,65.1 37.8,63 C37.6,60.9 38.3,59 40,57.5 C41.206,56.1 44.9,56.1 46.7,57.5 L46.7,57.5 Z" id="Shape" fill="#281D78"></path>
            <path d="M87.8,64.7 C88.6,66.099 88.4,70.599 87.6,71.3 C85.4,76.1 80,78.5 75.5,80.7 C74.5,77.5 75.5,73.5 74.2,70.5 C73.4,67.5 72.1,64.6 71.1,61.6 C71.5,59.701 73.7,61.5 74.7,60.3 C79.4,58.2 85.8,59.5 87.8,64.7 L87.8,64.7 Z" id="Shape" fill="#DB3813"></path>
            <path d="M165.5,63.2 C164.8,64.4 163.875,65.031 162.25,65.656 C161.137,66.36 159.469,66.922 159.469,66.922 C157.868,66.922 156.8,67.1 155.3,67.5 L152.8,64.7 C154.5,63.4 156.7,62.099 158.1,60.4 C160.6,61.3 162.9,62.6 165.5,63.2 L165.5,63.2 Z" id="Shape" fill="#DB3813"></path>
            <path d="M130.7,68.4 C131.3,69.5 131.4,70.799 131.3,72.2 C131.1,73.562 131.3,75.599 130.1,76.5 C128.6,78.2 127,80.2 125.1,81.2 C123.5,78.2 120.6,76.5 117.4,76.099 C119.188,73.182 121.708,70.799 122.1,65.2 C125.3,65 128.9,65.6 130.7,68.4 L130.7,68.4 Z" id="Shape" fill="#DB3813"></path>
            <path d="M151.7,69 C151.599,69.6 151.8,70.7 151.8,70.7 C151.3,73.7 149.5,76.4 147,78 C145.1,75.5 142.2,74.6 139.1,74.4 C140,73.099 144.063,70.799 145.8,67.4 L146.2,65.599 C148.3,66.1 151.1,66.4 151.7,69 L151.7,69 Z" id="Shape" fill="#DB3813"></path>
            <path d="M107.4,74.3 C108.6,76.401 108.3,79.2 107.7,81.401 C105.7,84.1 100.7,89.1 100.7,89.1 C99.7,89.5 99.1,89.701 98,89.8 C95.8,86.7 92.7,84.1 89.4,82.2 C89.2,82 89,81.599 88.7,81.4 C91.4,78.799 92.5,75.599 92.9,72 C94.1,69.2 97,71.5 99.2,70.5 C102.5,70.4 105.6,71.6 107.4,74.3 L107.4,74.3 Z" id="Shape" fill="#DB3813"></path>
            <path d="M165.2,74.1 C165.3,78.701 163.4,82.5 161.599,86.3 C160.4,84.2 157.999,82.5 155.9,81.5 C154.921,81.219 153.599,80.9 153.599,80.9 L152.2,80.6 C152.8,80.5 154.599,79.1 155.2,78.201 C156.7,76.201 157.4,73.301 156.9,70.801 C158.5,70.801 160.4,70.801 161.9,71.301 C164.609,71.688 164.5,73.3 165.2,74.1 L165.2,74.1 Z" id="Shape" fill="#DB3813"></path>
            <path d="M142.6,79.8 C142.6,83.3 139.901,85.7 138.901,88.7 C138.201,88.8 137.901,87.4 137.1,86.9 C134.701,84.799 131.8,83.099 128.6,83.7 C130.401,82.5 133.423,77.2 134.401,77.2 C136.75,77.2 140.8,76.8 142.6,79.8 L142.6,79.8 Z" id="Shape" fill="#DB3813"></path>
            <path d="M121.5,80.9 C122.3,82.9 122.9,85.299 122.3,87.599 C120.4,90.599 118.1,93.999 115,95.799 C113.7,91.9 109.6,90.9 106.4,89.799 C109.3,88.199 112.8,86.4 113.7,82.799 C114.5,81.499 112.9,78.699 114.9,78.499 C117.1,79 120.1,78.2 121.5,80.9 L121.5,80.9 Z" id="Shape" fill="#DB3813"></path>
            <path d="M79.4,85 C80.4,86.2 81.9,85.3 83.3,85.2 C85.4,84 87.9,85.5 89.7,86.7 C90.8,88.2 92.6,89.8 91.4,91.8 C89.3,96 85.1,99.2 80.6,99.901 L76.1,101.401 C75.5,100.401 76,85.201 76.2,84.501 C77.3,84.3 78.8,83.8 79.4,85 L79.4,85 Z" id="Shape" fill="#DB3813"></path>
            <path d="M155.6,86.4 C155.8,89.599 153.401,92.2 152.3,95.1 C150,92.2 146.5,92.2 143.2,91.7 C144.8,89.4 147.3,87.4 148,84.4 C150.6,84.9 153.3,85.2 155.6,86.4 L155.6,86.4 Z" id="Shape" fill="#DB3813"></path>
            <path d="M133.4,89.7 C134.599,94.5 133.7,100.2 129.5,103.1 L128.9,103.2 C125.799,99.3 121,98.5 116.299,98 C117.199,96.9 123.755,95.871 125.599,90.6 L126.2,86.201 C128.6,87.2 132.2,86.4 133.4,89.7 L133.4,89.7 Z" id="Shape" fill="#DB3813"></path>
            <path d="M109.7,94.7 C109.6,100.1 101.2,107.8 101.2,107.8 C101,108.101 98,109.5 98,109.5 C95.3,107.601 92.4,105.5 89.6,104.3 C91.4,103.5 94.8,103.581 99,98.3 C99.8,96.8 100.6,95.2 99.8,93.401 C101.3,91.901 103.9,92.701 105.9,92.701 C107.3,93.1 109,93.2 109.7,94.7 L109.7,94.7 Z" id="Shape" fill="#DB3813"></path>
            <path d="M166.8,94.7 L170.3,98.7 C165.401,100.8 160.6,103.5 155.8,105.6 C155.8,103.499 154.136,99.749 154.5,97.799 C158.438,88.188 166.8,94.7 166.8,94.7 L166.8,94.7 Z" id="Shape" fill="#DB3813"></path>
            <path d="M147.2,97.2 C149,100.2 151.3,104.1 149.3,107.6 L147.6,109.2 C144.063,105 137.401,103.5 137.1,103.5 C138.401,101.2 139.6,98.7 140,95.9 C142.3,95.8 145.2,95.9 147.2,97.2 L147.2,97.2 Z" id="Shape" fill="#DB3813"></path>
            <path d="M124.1,105 C124.201,108.7 123.5,112.5 123.8,116.2 L119.2,117.2 C116.8,112.2 111.4,110.7 106.8,109.1 C108.7,107.9 112.1,107.499 113.3,104.7 L115,101 C118.7,100.7 122.3,101.9 124.1,105 L124.1,105 Z" id="Shape" fill="#DB3813"></path>
            <path d="M140.3,109.5 L141.8,112.101 C138.401,113.601 134.901,114.101 131.2,114.901 C131.3,112.401 131.5,110.201 131.099,107.701 C131.9,106.201 132.541,106.701 133.7,106.701 C136.1,107.3 139.2,106.8 140.3,109.5 L140.3,109.5 Z" id="Shape" fill="#DB3813"></path>
            <path d="M89.8,110.3 C90.3,115 86.4,118.901 82.5,120.901 L75,123.601 C76.3,119.601 77.2,115.201 75.6,111 C75.2,107.9 79,109.2 80.8,108.5 C83.6,108 86.9,107.9 89.4,109.5 L89.8,110.3 L89.8,110.3 Z" id="Shape" fill="#DB3813"></path>
            <path d="M111.6,118.601 C106.1,119.8 94.8,122.201 94.8,122.201 C97.5,120.001 99.184,114.901 99.184,114.901 C99.184,112.204 101.323,112.671 101,112.601 C105.3,112.7 109.1,115.3 111.6,118.601 L111.6,118.601 Z" id="Shape" fill="#DB3813"></path>
            <path d="M97.7,154.4 L97.5,154.6 C94.1,151.499 93.7,146.7 89.7,143.9 C88.1,144 87.8,146 87.3,147.2 C87.5,149.2 87.9,151.8 87.4,154 C87.1,154.601 87,155.3 86.6,155.8 C83.7,153.7 85.6,149.7 84.5,146.601 C84.7,141.5 81.2,137.601 80.1,132.901 C83.1,132.8 86.1,132.601 89.1,132.5 C89.3,140.9 97.5,146.101 97.7,154.4 Z" id="Shape" fill="#DB3813"></path>
        </g>
    </g>
</svg>