<?xml version="1.0" encoding="utf-8"?>
<!-- Generator: Adobe Illustrator 15.0.1, SVG Export Plug-In . SVG Version: 6.00 Build 0)  -->
<!DOCTYPE svg PUBLIC "-//W3C//DTD SVG 1.1//EN" "http://www.w3.org/Graphics/SVG/1.1/DTD/svg11.dtd">
<svg version="1.1" id="Layer_1" xmlns="http://www.w3.org/2000/svg" xmlns:xlink="http://www.w3.org/1999/xlink" x="0px" y="0px"
	 width="300px" height="200px" viewBox="0 0 300 200" enable-background="new 0 0 300 200" xml:space="preserve">
<path fill="#FBB040" d="M120,25.4c0.8,7.8-0.8,14.6-4.7,20.699c-0.7,2.2-2.5,4.2-2.1,6.601c13.8,1.1,28.7,2,41.1,7.5
	c6.601,2.399,13.7,3.5,20.2,6c0.7,0.6,1.7,0.899,2.4,1.2C184.8,70.1,192.3,73.5,200.6,75.2c2.601-0.2,5.301,1.1,7.801,0.3
	c15.3-0.8,28.3-9.2,39.399-20.2c1.2-1.399,5.34-6.578,6.54-7.578c0.545-0.41,1.86-0.422,1.46,0.278
	c-0.421,1.93-0.871,4.661-0.922,6.271C255.078,63.372,252.2,71,251.3,79.7C249.2,85.1,246.1,91.1,240.6,94l0.4,0.3
	c10.1-0.399,19.2,2.5,26.2,9.601c8.362,6.412,4.1,16.6,4.1,16.6c-0.318,2.874-2.104,5.302-3.218,7.843
	c-0.282,0.643-0.843,1.363-1.246,0.793c-1.838-4.699-8.236-7.436-8.236-7.436l-10.699-1.6c-10.101-0.801-20.4-2.9-29.601,1.3
	c-7.399,2-24.5,11.2-26.399,11.899c-21.4,12.101-45.8,17.101-71.4,18.9c0.3,1.3,1.1,2.9,1.7,4.2c0,1.7,2.1,2.399,2.7,3.899
	c2.7,2.601,3.1,6.5,5.4,9.4c1.1,2.5,0.8,6-1.1,7.7c0,0-0.894,0.799-2.6,0.7s-4.503-3.693-6.8-8.301c-0.1-0.3-0.4-0.5-0.6-0.699
	c0.1,1.899,0.7,5.1,0,6.899c0.7,1.2,0.021,2.441-1.018,4.12c-1,0.801-1.638,0.719-2.982,0.28c-4.6-2.5-4.4-8-5.8-12.3
	c-0.8-5-2.721-11.001-4.721-15.601H102.8c-20.9-1-41.9-2.6-58.8-13.899C35,131.9,31.2,122,29.2,111.8c-1-8.5,2.6-16,5.2-23.5
	C45.4,66.9,68.2,57,89.8,53.4c3.3-4.601,3.4-10.5,4.4-16.101c1.9-5.199,4-11.1,9.1-14.399c0.7-0.4,1.9-0.3,2.5,0.3
	c1.9,3.1-0.4,6.4-0.3,9.7c1.3-1.2,2.2-3.2,3.6-4.7c2.3-1.9,3.8-5.3,6.5-6.2c0.8-0.6,1.8-1.8,3.1-1C119.6,22.3,119.7,24.101,120,25.4
	z"/>
<path fill="#DB3813" d="M115.8,30.2l-1.6,11c-1,3.8-3.4,7-3.4,11.2c-5.3-0.101-11.2-0.2-15.9,0.199c-0.2-2.899,2.4-5,2.3-8
	c1-4.199,0.4-8.399,1.4-12.8c0.6-2.199,2.5-4.1,3.8-6.1l0.2,0.1c0.1,4.7-0.2,9.3-0.6,13.8c1,1.101,1.7,3.2,3.7,3
	c2.8-1.3,3-4.899,4-7.6c-0.1-2.399,1.8-4.399,2.5-6.7l2.6-3.199C116.1,26.3,115.5,28.5,115.8,30.2z"/>
<path fill="#DB3813" d="M126.4,60.5c-4.5,2.5-9.9,2.5-14.8,3.7c-1.1-0.4-1-1.8-1.9-2.5l-2.2-2.2c4.5-0.2,9.7,0,13.8,0.3L126.4,60.5z
	"/>
<path fill="#DB3813" d="M106.2,63c1.2,5.6-3.9,9.9-8.2,13.1c-2.8-5.199-6.2-10.6-11-14.5c5.4-1,11.8-3.3,17.4-0.899L106.2,63z"/>
<path fill="#DB3813" d="M142.9,62.6c-1.3,3.9-5,7.4-8.7,9c-2.4-3.899-6.7-5-10.6-6.399c2.7-0.8,6.372-2.769,6.947-3.091
	S131.5,61,131.5,61L142.9,62.6z"/>
<path fill="#FECC7D" d="M90.2,73.2c3.3,4.3,4.4,9.5,6.4,14.399c3.7,10.9,3.3,24.101,3.1,36.001c0.121,2.305-0.303,4.685-0.6,6.1
	c-1.1,5-1.7,10.4-2.3,15.5l-9.4,0.2c-2.7-0.601-5.7-0.601-8.6-0.9c-7.4-0.899-14.7-1.6-21.3-4.8c6.1-1.4,10.8-6.2,15-10.7
	c0.8-1.3,1.8-2.2,2.9-3.5c1.2-3.7,3.6-6.899,4.5-10.8c0,0-0.291-3.763-0.416-5.091S78.1,110,78.1,110c-2.5,8-7.7,15.101-13.7,21.3
	c-3.2,2.9-6.7,5.2-10.4,6.801C44.1,133.8,36.6,123.5,36.5,112.6C36,102.2,38.6,91.7,45.5,83.9C54.7,73,66.5,66.7,79.1,63.1
	C79.7,63.1,87,70,90.2,73.2z"/>
<path fill="#DB3813" d="M148.8,64.6c2.4,0.301,4.4,1.801,6,3.7c2.101,3.601,0.7,7.9-0.6,11.4c-1.101,1-2.5,1.899-3.8,2
	c-1.4-4.5-5.7-7.9-9.9-9.7v-0.4c1.5-1.6,3.6-2.399,4.6-4.5c1.3-0.6,1.8-2.1,1.9-3.399C147.7,63.6,148.2,64.4,148.8,64.6z"/>
<path fill="#DB3813" d="M122.8,68.3c1.5,0.601,3.6,0.9,4.4,2.7c1.5,5.6-2.5,9.9-6.7,13l-3.7-4.6c-2.8-1.5-5.6-3-9.2-2.7
	c2.5-1.5,3.1-4.4,3.9-7.101c0.1-1-0.5-2.8,1.2-2.5C116,67.4,119.3,67.7,122.8,68.3z"/>
<path fill="#281D78" d="M84.4,71.2c0.783,0.751,2.035,3.583,2.1,4.899s1.3,5.5-0.2,7.801C84.8,89.3,74.9,94.7,74.9,94.7
	c-4.6,1.1-9.6-0.101-12.3-3.601c-2.4-3.3-3.4-8-1.8-12c2.5-3.699,5.3-8.1,9.5-10C75.1,65.9,83.617,70.449,84.4,71.2z"/>
<path fill="#DB3813" d="M181.4,77.9c-1.301,1.899-3.801,3-6.101,3.699c-0.5-3.199-2.7-6.199-5.399-7.899
	c-2.601-1.3-5.7-1.4-8.601-1.9l-0.7-2.8C168.2,70.5,174,75.8,181.4,77.9z"/>
<path fill="#4DA1CD" d="M83.8,76.8c0.9,2.9,1.5,7.101-1,9.5c-3.7,3.9-8.5,6.9-14.2,5.3c-1.8-0.699-3.7-2-4.8-3.899l-1.3-4.9
	c0.6-6.399,7.4-8.5,12.3-10.3C78.1,73.1,81.5,73.7,83.8,76.8z"/>
<path fill="#DB3813" d="M168.5,77.3c2.5,2.042,1.547,7.21,0.562,9.325c-0.899,1.5-2.662,3.275-4.162,4.175
	c-0.801-0.6-0.5-2.2-1.2-3.1c-2-3.101-5.4-4.4-8.9-4.7c2.2-1.3,4.234-2.362,5.534-5.062c0.2-1.199,0.266-2.737,1.166-3.938
	C164.1,74.5,166.5,75.3,168.5,77.3z"/>
<path fill="#DB3813" d="M222.8,97.2c-0.2,0.2,3.513,0.8,7.601,1.899c3.5,2.301,8,1.5,11.899,2.5c0,0,3.3,0.7,4.7,1.101
	c2.604,0.725,6.5,2,7.3,2.5c2.7,1.7,5.2,3.8,7.4,6.2c-15.3-4.801-35.4-4.5-49.4,3.199c0,0-7.2,1.2-8.3,1.9c-0.3-0.1-0.4-2.6-0.7-3.3
	c-2-3.4-5.399-4.4-8.899-4.8c-0.101-1.2,9.35-7.833,3-16.101c-0.601-0.6-0.9-1.8-1.7-2.3c1.399-1.9,4-2.9,4.8-5.3
	c6,0.7,13.1,1.8,19,0c8.2-0.9,15.2-5.3,21.6-10.4C237.6,81.7,221.8,96.4,222.8,97.2z"/>
<path fill="#DB3813" d="M146.9,81.2c1.788,6.3-2.3,10.3-5.1,13c-2.8-2.2-5.8-5.3-9.4-6.101l-2.9-0.899c3.3-3.101,5.7-6.9,5.9-11.601
	c1.9-1.8,4.4,0,6.4,0.601C144.1,77.1,146,78.9,146.9,81.2z"/>
<path fill="#281D78" d="M75.7,77.5c0.6,1.4,1.9,3,0.6,4.5c-1.3,1.6-2.9,3.1-4.9,3.3c-1.7-0.2-3.9-0.2-4.6-2.3
	c-0.2-2.1,0.5-4,2.2-5.5C70.206,76.1,73.9,76.1,75.7,77.5z"/>
<path fill="#DB3813" d="M116.8,84.7c0.8,1.399,0.6,5.899-0.2,6.6c-2.2,4.8-7.6,7.2-12.1,9.4c-1-3.2,0-7.2-1.3-10.2
	c-0.8-3-2.1-5.9-3.1-8.9c0.4-1.899,2.6-0.1,3.6-1.3C108.4,78.2,114.8,79.5,116.8,84.7z"/>
<path fill="#DB3813" d="M194.5,83.2c-0.7,1.2-1.625,1.831-3.25,2.456c-1.113,0.704-2.781,1.266-2.781,1.266
	c-1.601,0-2.669,0.178-4.169,0.578l-2.5-2.8c1.7-1.3,3.9-2.601,5.3-4.3C189.6,81.3,191.9,82.6,194.5,83.2z"/>
<path fill="#DB3813" d="M159.7,88.4c0.6,1.1,0.7,2.399,0.6,3.8c-0.2,1.362,0,3.399-1.2,4.3c-1.5,1.7-3.1,3.7-5,4.7
	c-1.6-3-4.5-4.7-7.7-5.101c1.788-2.917,4.308-5.3,4.7-10.899C154.3,85,157.9,85.6,159.7,88.4z"/>
<path fill="#DB3813" d="M180.7,89c-0.101,0.6,0.1,1.7,0.1,1.7c-0.5,3-2.3,5.7-4.8,7.3c-1.9-2.5-4.8-3.4-7.9-3.6
	c0.9-1.301,4.963-3.601,6.7-7l0.4-1.801C177.3,86.1,180.1,86.4,180.7,89z"/>
<path fill="#DB3813" d="M136.4,94.3c1.2,2.101,0.9,4.9,0.3,7.101c-2,2.699-7,7.699-7,7.699c-1,0.4-1.6,0.601-2.7,0.7
	c-2.2-3.1-5.3-5.7-8.6-7.6c-0.2-0.2-0.4-0.601-0.7-0.8c2.7-2.601,3.8-5.801,4.2-9.4c1.2-2.8,4.1-0.5,6.3-1.5
	C131.5,90.4,134.6,91.6,136.4,94.3z"/>
<path fill="#DB3813" d="M194.2,94.1c0.1,4.601-1.8,8.4-3.601,12.2c-1.199-2.1-3.6-3.8-5.699-4.8c-0.979-0.281-2.301-0.6-2.301-0.6
	L181.2,100.6c0.6-0.1,2.399-1.5,3-2.399c1.5-2,2.2-4.9,1.7-7.4c1.6,0,3.5,0,5,0.5C193.609,91.688,193.5,93.3,194.2,94.1z"/>
<path fill="#DB3813" d="M171.6,99.8c0,3.5-2.699,5.9-3.699,8.9c-0.7,0.1-1-1.3-1.801-1.8c-2.399-2.101-5.3-3.801-8.5-3.2
	c1.801-1.2,4.823-6.5,5.801-6.5C165.75,97.2,169.8,96.8,171.6,99.8z"/>
<path fill="#DB3813" d="M150.5,100.9c0.8,2,1.4,4.399,0.8,6.699c-1.9,3-4.2,6.4-7.3,8.2c-1.3-3.899-5.4-4.899-8.6-6
	c2.9-1.6,6.4-3.399,7.3-7c0.8-1.3-0.8-4.1,1.2-4.3C146.1,99,149.1,98.2,150.5,100.9z"/>
<path fill="#DB3813" d="M108.4,105c1,1.2,2.5,0.3,3.9,0.2c2.1-1.2,4.6,0.3,6.4,1.5c1.1,1.5,2.9,3.1,1.7,5.1
	c-2.1,4.2-6.3,7.4-10.8,8.101l-4.5,1.5c-0.6-1-0.1-16.2,0.1-16.9C106.3,104.3,107.8,103.8,108.4,105z"/>
<path fill="#DB3813" d="M184.6,106.4c0.2,3.199-2.199,5.8-3.3,8.7c-2.3-2.9-5.8-2.9-9.1-3.4c1.6-2.3,4.1-4.3,4.8-7.3
	C179.6,104.9,182.3,105.2,184.6,106.4z"/>
<path fill="#DB3813" d="M162.4,109.7c1.199,4.8,0.3,10.5-3.9,13.4l-0.6,0.1c-3.101-3.9-7.9-4.7-12.601-5.2
	c0.9-1.1,7.456-2.129,9.3-7.4l0.601-4.399C157.6,107.2,161.2,106.4,162.4,109.7z"/>
<path fill="#DB3813" d="M138.7,114.7c-0.1,5.4-8.5,13.1-8.5,13.1c-0.2,0.301-3.2,1.7-3.2,1.7c-2.7-1.899-5.6-4-8.4-5.2
	c1.8-0.8,5.2-0.719,9.4-6c0.8-1.5,1.6-3.1,0.8-4.899c1.5-1.5,4.1-0.7,6.1-0.7C136.3,113.1,138,113.2,138.7,114.7z"/>
<path fill="#DB3813" d="M195.8,114.7l3.5,4c-4.899,2.1-9.7,4.8-14.5,6.9c0-2.101-1.664-5.851-1.3-7.801
	C187.438,108.188,195.8,114.7,195.8,114.7z"/>
<path fill="#DB3813" d="M176.2,117.2c1.8,3,4.1,6.9,2.1,10.4l-1.7,1.6c-3.537-4.2-10.199-5.7-10.5-5.7c1.301-2.3,2.5-4.8,2.9-7.6
	C171.3,115.8,174.2,115.9,176.2,117.2z"/>
<path fill="#DB3813" d="M153.1,125c0.101,3.7-0.6,7.5-0.3,11.2l-4.6,1c-2.4-5-7.8-6.5-12.4-8.1c1.9-1.2,5.3-1.601,6.5-4.4l1.7-3.7
	C147.7,120.7,151.3,121.9,153.1,125z"/>
<path fill="#DB3813" d="M169.3,129.5l1.5,2.601c-3.399,1.5-6.899,2-10.6,2.8c0.1-2.5,0.3-4.7-0.101-7.2c0.801-1.5,1.442-1,2.601-1
	C165.1,127.3,168.2,126.8,169.3,129.5z"/>
<path fill="#DB3813" d="M118.8,130.3c0.5,4.7-3.4,8.601-7.3,10.601l-7.5,2.7c1.3-4,2.2-8.4,0.6-12.601c-0.4-3.1,3.4-1.8,5.2-2.5
	c2.8-0.5,6.1-0.6,8.6,1L118.8,130.3z"/>
<path fill="#DB3813" d="M140.6,138.601c-5.5,1.199-16.8,3.6-16.8,3.6c2.7-2.2,4.384-7.3,4.384-7.3c0-2.697,2.139-2.23,1.816-2.3
	C134.3,132.7,138.1,135.3,140.6,138.601z"/>
<path fill="#DB3813" d="M118.1,152.5c0.2,8.4,8.4,13.601,8.6,21.9l-0.2,0.2c-3.4-3.101-3.8-7.9-7.8-10.7c-1.6,0.1-1.9,2.1-2.4,3.3
	c0.2,2,0.6,4.6,0.1,6.8c-0.3,0.601-0.4,1.3-0.8,1.8c-2.9-2.1-1-6.1-2.1-9.199c0.2-5.101-3.3-9-4.4-13.7
	C112.1,152.8,115.1,152.601,118.1,152.5z"/>
<path fill="#DB3813" d="M222.5,97.9"/>
</svg>
